<svg xmlns="http://www.w3.org/2000/svg" version="1.1" viewBox="0.12 0.07 2315.4 934.93" width="497.33589772816737" height="201.07134927681767"><path d="M 178.072 130.084 C 109.671 135.699, 47.812 176.348, 21.021 233.286 C 3.482 270.560, -0.937 310.832, 0.315 422 C 0.891 473.129, 1.820 493.169, 4.580 514 C 9.464 550.863, 23.021 582.196, 45.236 607.968 C 70.220 636.951, 107.100 659.363, 145.500 668.899 C 162.044 673.008, 175.501 674.426, 198 674.432 C 236.296 674.442, 264.934 668.264, 294.500 653.616 C 316.297 642.816, 331.596 631.500, 349.211 613.148 C 372.735 588.640, 388.158 554.957, 395.516 512.022 C 399.152 490.807, 399.958 474.679, 399.979 422.750 L 400 372 298.500 372 L 197 372 197 416 L 197 460 246.112 460 L 295.223 460 294.744 481.250 C 294.225 504.280, 292.974 511.512, 287.010 525.976 C 271.752 562.978, 232.071 584.534, 187.552 580.005 C 164.677 577.678, 148.539 570.515, 134.387 556.406 C 121.261 543.320, 113.271 523.929, 108.424 493.399 C 104.770 470.381, 104.805 334.604, 108.471 311 C 111.619 290.738, 117.342 272.691, 124.134 261.607 C 135.046 243.801, 154.743 230.376, 176.587 225.856 C 189.655 223.151, 214.207 223.642, 226.233 226.848 C 259.130 235.617, 279.696 256.658, 290.650 292.750 L 293.457 302 346.229 302 C 398.827 302, 399 301.993, 399 299.942 C 399 295.156, 394.471 276.470, 390.046 263 C 365.337 187.781, 307.101 140.239, 228.500 131.117 C 214.805 129.527, 190.831 129.036, 178.072 130.084 M 2112 134.049 C 2071.738 136.369, 2039.432 146.241, 2011.500 164.758 C 1966.962 194.285, 1944.016 238.910, 1944.016 296 C 1944.016 367.111, 1977.197 414.098, 2042.023 434.785 C 2058.023 439.891, 2072.903 442.698, 2114.500 448.458 C 2165.918 455.577, 2170.324 456.559, 2185.202 464.212 C 2203.566 473.657, 2212.844 490.852, 2212.965 515.662 C 2213.139 551.448, 2192.067 572.657, 2149.440 579.599 C 2136.389 581.724, 2103.842 582.006, 2089 580.122 C 2050.588 575.248, 2019.071 562.312, 1997.166 542.429 L 1990.831 536.680 1956.860 570.590 L 1922.888 604.500 1930.694 611.929 C 1962.850 642.531, 2010.073 663.922, 2062 671.408 C 2082.814 674.408, 2098.937 675.260, 2124.405 674.705 C 2166.202 673.793, 2194.676 667.787, 2224.500 653.592 C 2289.141 622.823, 2319.919 570.223, 2315.006 498.916 C 2313.111 471.401, 2308.638 453.315, 2298.951 434 C 2283.303 402.800, 2258.595 382.759, 2220 369.961 C 2202.397 364.124, 2189.078 361.499, 2144 354.982 C 2121.175 351.682, 2098.974 348.073, 2094.663 346.962 C 2058.185 337.558, 2039.502 310.618, 2046.511 277.529 C 2050.546 258.481, 2062.971 243.034, 2081.911 233.521 C 2101.198 223.833, 2139.573 222.198, 2172.960 229.640 C 2196.632 234.917, 2213.978 243.319, 2232.728 258.593 L 2235.956 261.222 2268.728 229.048 C 2286.753 211.352, 2301.633 196.502, 2301.796 196.049 C 2302.307 194.626, 2286.013 181.231, 2273.624 172.889 C 2248.011 155.642, 2220.182 144.536, 2187.553 138.540 C 2165.050 134.405, 2135.893 132.671, 2112 134.049 M 950 315.894 C 950 503.364, 950.089 507.958, 954.121 528.879 C 968.605 604.018, 1031.477 660.787, 1113.196 672.512 C 1136.498 675.856, 1167.662 675.387, 1189.500 671.365 C 1222.869 665.219, 1249.760 653.413, 1276.500 633.168 C 1286.079 625.915, 1304.913 606.327, 1312.237 596 C 1329.548 571.591, 1340.435 541.989, 1343.942 509.789 C 1344.647 503.322, 1345 438.942, 1345 317.039 L 1345 134 1292.521 134 L 1240.041 134 1239.749 319.250 L 1239.457 504.500 1237.233 512.794 C 1228.154 546.656, 1206.023 569.562, 1174.836 577.378 C 1156.021 582.093, 1132.709 581.489, 1115 575.828 C 1083.902 565.887, 1063.716 541.374, 1057.497 506 C 1056.208 498.668, 1056.003 472.536, 1056.001 315.750 L 1056 134 1003 134 L 950 134 950 315.894 M 1453 402 L 1453 670 1506 670 L 1559 670 1559 563.488 L 1559 456.976 1596.222 457.238 L 1633.444 457.500 1685.404 563.750 L 1737.364 670 1798.596 670 L 1859.828 670 1851.953 654.750 C 1847.622 646.362, 1820.714 594.500, 1792.158 539.500 C 1742.983 444.788, 1740.350 439.452, 1742.368 438.595 C 1743.541 438.098, 1749.078 435.554, 1754.673 432.943 C 1811.610 406.374, 1842.691 350.259, 1837.144 284.050 C 1833.577 241.478, 1819.735 210.631, 1791.552 182.448 C 1763.747 154.643, 1731.365 139.882, 1687.500 135.015 C 1682.047 134.410, 1634.070 134.013, 1565.750 134.008 L 1453 134 1453 402 M 1559 298.440 L 1559 369 1607.250 368.974 C 1656.495 368.948, 1670.230 368.291, 1681.260 365.433 C 1703.197 359.749, 1721.907 342.482, 1728.548 321.792 C 1732.140 310.600, 1732.959 294.880, 1730.571 282.948 C 1727.879 269.501, 1722.350 259.207, 1712.560 249.417 C 1705.757 242.614, 1702.763 240.454, 1694.933 236.696 C 1678.111 228.625, 1678.918 228.710, 1615.250 228.269 L 1559 227.879 1559 298.440 M 1716.208 808.750 C 1716.493 871.015, 1716.549 872.605, 1718.592 877 C 1721.456 883.161, 1725.469 887.676, 1730.376 890.257 C 1733.790 892.054, 1736.608 892.494, 1746.750 892.816 L 1759 893.206 1759 883.603 L 1759 874 1751.723 874 C 1743.135 874, 1740.542 872.614, 1739.044 867.221 C 1738.387 864.854, 1738.009 841.938, 1738.006 804.250 L 1738 745 1726.958 745 L 1715.917 745 1716.208 808.750 M 1841 770.517 L 1841 796.033 1835.908 792.530 C 1829.238 787.943, 1824.342 786.622, 1813.933 786.604 C 1796.586 786.573, 1784.807 794.660, 1779.992 809.906 C 1776.921 819.629, 1775.575 838.268, 1776.897 852.756 C 1778.915 874.871, 1783.498 883.886, 1796.063 890.458 C 1808.741 897.088, 1827.145 895.704, 1836.859 887.388 L 1841 883.844 1841 888.422 L 1841 893 1852 893 L 1863 893 1863 819 L 1863 745 1852 745 L 1841 745 1841 770.517 M 591.166 787.534 C 580.268 789.899, 569.723 797.581, 564.696 806.817 C 559.881 815.663, 558.567 822.888, 558.567 840.500 C 558.567 863.427, 561.317 872.454, 571.359 882.483 C 591.127 902.224, 628.247 897.181, 640.451 873.096 C 647.450 859.284, 648.705 830.083, 643.011 813.533 C 638.199 799.545, 626.012 789.506, 610.862 787.047 C 602.772 785.735, 599.029 785.827, 591.166 787.534 M 833.270 786.998 C 826.876 788.345, 819.878 791.737, 816.250 795.247 L 813 798.392 813 793.196 L 813 788 802.500 788 L 792 788 792 840.500 L 792 893 803 893 L 814 893 814.006 858.750 C 814.009 837.840, 814.422 823.022, 815.065 820.706 C 815.644 818.619, 818.004 814.950, 820.309 812.554 C 827.500 805.076, 837.728 804.123, 846.054 810.154 L 850.274 813.211 858.387 805.041 L 866.500 796.871 862.654 793.497 C 856.169 787.806, 843.126 784.922, 833.270 786.998 M 961 787.362 C 952.860 789.131, 946.135 792.768, 940.359 798.526 C 930.614 808.242, 927.638 817.920, 927.606 840 C 927.575 862.195, 930.813 872.936, 940.439 882.561 C 960.425 902.548, 998.570 896.762, 1010.212 871.978 C 1014.212 863.463, 1015.427 855.942, 1015.378 840 C 1015.310 817.833, 1012.361 808.227, 1002.641 798.514 C 992.334 788.215, 976.543 783.986, 961 787.362 M 1236.500 787.026 C 1230.491 788.239, 1227.088 789.749, 1221.796 793.551 L 1217 796.997 1217 792.498 L 1217 788 1206.500 788 L 1196 788 1196 840.500 L 1196 893 1207 893 L 1218 893 1218.006 858.250 C 1218.009 835.978, 1218.408 822.064, 1219.116 819.500 C 1223.544 803.472, 1249.687 801.572, 1257.154 816.736 C 1259.461 821.420, 1259.506 822.098, 1259.837 857.250 L 1260.173 893 1271.087 893 L 1282 893 1281.980 858.750 C 1281.959 822.729, 1281.262 813.651, 1277.936 806.108 C 1271.624 791.794, 1253.724 783.550, 1236.500 787.026 M 1543.251 787.516 C 1527.548 790.928, 1516.789 801.597, 1512.258 818.251 C 1509.864 827.049, 1509.901 853.873, 1512.319 862.895 C 1514.703 871.792, 1518.559 878.414, 1524.462 883.751 C 1541.085 898.780, 1569.258 898.234, 1585.374 882.570 C 1594.705 873.502, 1598.253 861.870, 1598.209 840.500 C 1598.176 824.388, 1597.118 817.986, 1593.055 809.304 C 1587.635 797.721, 1575.920 789.192, 1562.387 786.976 C 1554.817 785.736, 1550.944 785.845, 1543.251 787.516 M 1667.500 786.966 C 1661.371 788.295, 1658.027 789.793, 1652.796 793.551 L 1648 796.997 1648 792.498 L 1648 788 1637 788 L 1626 788 1626 840.500 L 1626 893 1636.952 893 L 1647.905 893 1648.202 857.750 C 1648.496 822.926, 1648.529 822.442, 1650.883 817.660 C 1656.665 805.916, 1671.333 802.519, 1681.031 810.679 L 1684.151 813.305 1692.549 804.952 C 1702.267 795.283, 1702.262 795.205, 1691.573 789.986 C 1684.862 786.709, 1674.613 785.423, 1667.500 786.966 M 454.442 791.750 C 455.186 793.813, 463.465 816.332, 472.839 841.792 L 489.883 888.085 486.423 897.642 C 484.521 902.898, 482.493 908.078, 481.918 909.153 C 480.068 912.609, 474.902 914.992, 469.250 914.996 L 464 915 464 925 L 464 935 471.318 935 C 484.918 935, 494.338 930.128, 499.224 920.568 C 500.367 918.331, 511.980 887.574, 525.031 852.220 L 548.759 787.940 536.782 788.220 L 524.806 788.500 513.043 824 C 502.224 856.651, 501.188 859.274, 500.141 856.689 C 499.515 855.142, 493.995 839.055, 487.874 820.939 L 476.745 788 464.917 788 L 453.089 788 454.442 791.750 M 673.017 824.250 C 673.037 865.564, 673.657 870.897, 679.449 879.621 C 686.173 889.749, 695.638 894.294, 710 894.294 C 720.558 894.294, 725.268 892.976, 732.511 887.992 L 737 884.904 737 888.952 L 737 893 748 893 L 759 893 759 840.500 L 759 788 748.047 788 L 737.093 788 736.797 824.250 C 736.507 859.634, 736.446 860.600, 734.252 864.707 C 729.161 874.233, 714.877 877.661, 704.846 871.764 C 701.497 869.795, 699.535 867.693, 697.846 864.264 C 695.537 859.576, 695.495 858.932, 695.192 823.750 L 694.885 788 683.942 788 L 673 788 673.017 824.250 M 1027 788.493 C 1027 788.944, 1054.403 878.114, 1058.118 889.750 L 1059.155 893 1068.838 893 L 1078.521 893 1090.400 857.316 L 1102.279 821.631 1114.370 857.316 L 1126.461 893 1135.994 893 L 1145.528 893 1161.514 841.885 C 1170.306 813.772, 1177.645 790.147, 1177.823 789.385 C 1178.085 788.264, 1175.890 788.001, 1166.323 788.008 L 1154.500 788.015 1146.092 818.758 C 1141.468 835.666, 1137.006 851.750, 1136.177 854.500 L 1134.670 859.500 1123.025 824 L 1111.380 788.500 1102.525 788.500 L 1093.670 788.500 1082.339 822.500 C 1076.106 841.200, 1070.736 857.175, 1070.405 858 C 1070.075 858.825, 1065.413 843.525, 1060.047 824 L 1050.290 788.500 1038.645 788.218 C 1032.240 788.063, 1027 788.187, 1027 788.493 M 1348 788.935 C 1348 789.768, 1363.550 840.373, 1375.598 878.750 L 1380.072 893 1389.796 893 L 1399.521 893 1411.425 857.250 L 1423.328 821.500 1435.247 857.250 L 1447.167 893 1456.833 892.997 L 1466.500 892.995 1482.410 841.747 C 1491.160 813.561, 1498.521 789.938, 1498.767 789.250 C 1499.108 788.295, 1496.408 788, 1487.326 788 L 1475.437 788 1467.033 818.750 C 1462.410 835.663, 1457.957 851.750, 1457.137 854.500 L 1455.645 859.500 1443.920 824 L 1432.196 788.500 1423.348 788.222 L 1414.500 787.945 1403.633 821.222 C 1397.656 839.525, 1392.327 855.625, 1391.790 857 C 1390.968 859.107, 1389.489 854.705, 1382.386 829 C 1377.751 812.225, 1373.280 796.138, 1372.451 793.250 L 1370.944 788 1359.472 788 C 1353.020 788, 1348 788.409, 1348 788.935 M 594.655 807.459 C 586.144 810.493, 582.255 817.081, 580.699 831.100 C 579.366 843.114, 580.797 857.722, 583.905 863.813 C 591.256 878.224, 613.868 878.233, 620.841 863.828 C 625.582 854.036, 625.594 827.013, 620.862 817.223 C 616.421 808.034, 604.989 803.774, 594.655 807.459 M 964.500 807.207 C 959.768 808.860, 955.152 812.781, 953.024 816.953 C 948.850 825.134, 948.110 847.348, 951.597 859.789 C 954.153 868.912, 962.395 875.018, 972.116 874.990 C 977.505 874.975, 985.512 870.704, 988.361 866.326 C 992.169 860.475, 993.273 854.692, 993.293 840.500 C 993.316 824.195, 991.536 817.152, 986.081 811.963 C 980.416 806.573, 971.766 804.667, 964.500 807.207 M 1546.655 807.399 C 1536.599 811.141, 1532.015 821.505, 1532.015 840.500 C 1532.015 856.812, 1535.279 866.150, 1542.836 871.456 C 1546.629 874.118, 1548.017 874.500, 1553.915 874.500 C 1562.888 874.500, 1569.158 870.866, 1572.893 863.500 C 1575.190 858.972, 1575.466 857.117, 1575.821 843.859 C 1576.260 827.465, 1575.207 820.446, 1571.460 814.770 C 1566.874 807.823, 1554.999 804.294, 1546.655 807.399 M 1812.500 807.326 C 1803.774 810.740, 1800.340 816.793, 1798.986 831.144 C 1797.217 849.898, 1800.686 866.397, 1807.415 871.230 C 1811.157 873.918, 1817.999 875.377, 1823.202 874.597 C 1829.987 873.579, 1834.028 870.443, 1837.500 863.500 C 1840.458 857.583, 1840.500 857.278, 1840.500 841.500 C 1840.500 822.727, 1839.367 817.517, 1834.083 811.977 C 1828.833 806.474, 1819.705 804.507, 1812.500 807.326" stroke="none" fill="#040404" fill-rule="evenodd"/><path d="M 688.544 1.107 C 688.267 1.873, 681.957 18.630, 674.520 38.345 C 667.084 58.059, 661 74.372, 661 74.595 C 661 75.205, 715.585 75.082, 716.197 74.470 C 716.672 73.994, 690.476 1.143, 689.466 0.133 C 689.236 -0.098, 688.821 0.341, 688.544 1.107 M 735.691 134.519 C 734.798 137.258, 708.616 221.850, 677.508 322.500 C 646.401 423.150, 620.696 506.175, 620.386 507 C 620.076 507.825, 606.959 473.063, 591.237 429.750 C 575.515 386.438, 562.393 351.006, 562.076 351.014 C 561.502 351.027, 450.890 668.823, 450.962 670.250 C 450.983 670.663, 499.777 671, 559.393 671 C 645.193 671, 667.883 670.739, 668.251 669.750 C 668.506 669.063, 683.929 624.850, 702.524 571.500 C 721.119 518.150, 736.595 474.197, 736.916 473.827 C 737.237 473.457, 751.904 517.557, 769.510 571.827 L 801.519 670.500 852.260 670.759 C 896.690 670.986, 903 670.833, 903 669.526 C 903 668.037, 739.769 135.276, 738.162 131.519 C 737.447 129.848, 737.059 130.319, 735.691 134.519 M 620.149 182.717 C 615.440 195.568, 580 298.332, 580 299.135 C 580 299.611, 598.900 300, 622 300 C 645.100 300, 664 299.813, 664 299.586 C 664 298.844, 623.015 177.682, 622.636 177.303 C 622.434 177.100, 621.315 179.537, 620.149 182.717" stroke="none" fill="#a4cc3c" fill-rule="evenodd"/></svg>